<svg xmlns="http://www.w3.org/2000/svg" xmlns:xlink="http://www.w3.org/1999/xlink" width="2048" zoomAndPan="magnify" viewBox="0 0 1536 1535.999932" height="2048" preserveAspectRatio="xMidYMid meet" version="1.0"><defs><clipPath id="1494d904a9"><path d="M 0 12.984375 L 1536 12.984375 L 1536 1536 L 0 1536 Z M 0 12.984375 " clip-rule="nonzero"/></clipPath></defs><g clip-path="url(#1494d904a9)"><path fill="#000000" d="M 767.714844 12.808594 C 340.890625 12.808594 -5.910156 359.609375 -5.910156 786.433594 C -5.910156 1213.257812 340.890625 1560.058594 767.714844 1560.058594 C 1194.539062 1560.058594 1541.339844 1213.257812 1541.339844 786.433594 C 1541.339844 359.609375 1194.539062 12.808594 767.714844 12.808594 Z M 767.714844 86.488281 C 1154.722656 86.488281 1467.664062 399.425781 1467.664062 786.433594 C 1467.664062 1173.441406 1154.722656 1486.378906 767.714844 1486.378906 C 380.710938 1486.378906 67.769531 1173.441406 67.769531 786.433594 C 67.769531 399.425781 380.710938 86.488281 767.714844 86.488281 Z M 767.714844 86.488281 " fill-opacity="1" fill-rule="nonzero"/></g><path fill="#000000" d="M 403.519531 340.882812 C 446.53125 334.738281 506.832031 348.769531 584.75 393.410156 L 599.542969 402.164062 L 608.242188 407.601562 L 629.828125 403.089844 C 650.367188 399.121094 671.039062 396.046875 691.847656 393.875 C 712.652344 391.699219 733.511719 390.429688 754.429688 390.066406 C 775.347656 389.699219 796.238281 390.242188 817.109375 391.691406 C 837.976562 393.140625 858.742188 395.488281 879.410156 398.738281 L 904.203125 403.089844 L 925.738281 407.601562 L 934.492188 402.164062 C 1009.800781 356.488281 1069.722656 338.546875 1115.125 339.742188 L 1124.042969 340.175781 L 1132.035156 341.101562 L 1136.167969 341.863281 L 1138.886719 342.460938 L 1146.714844 345.015625 C 1149.894531 346.328125 1152.917969 347.929688 1155.789062 349.816406 C 1158.664062 351.703125 1161.332031 353.839844 1163.800781 356.234375 C 1166.265625 358.625 1168.488281 361.230469 1170.460938 364.042969 C 1172.433594 366.855469 1174.125 369.832031 1175.535156 372.964844 C 1178.300781 379.121094 1180.839844 385.371094 1183.15625 391.710938 C 1185.472656 398.046875 1187.558594 404.460938 1189.414062 410.949219 C 1191.269531 417.4375 1192.894531 423.984375 1194.28125 430.589844 C 1195.667969 437.191406 1196.820312 443.839844 1197.730469 450.527344 C 1198.644531 457.210938 1199.316406 463.921875 1199.75 470.65625 C 1200.179688 477.394531 1200.371094 484.132812 1200.320312 490.882812 C 1200.269531 497.632812 1199.976562 504.371094 1199.441406 511.097656 C 1198.910156 517.824219 1198.136719 524.523438 1197.121094 531.195312 L 1194.566406 545.714844 L 1192.066406 556.371094 L 1198.753906 565.234375 C 1229.964844 608.464844 1249.324219 659.195312 1254.761719 712.429688 L 1256.011719 728.46875 L 1256.390625 743.257812 C 1256.390625 952.875 1166.183594 1063.148438 1003.875 1106.484375 L 990.550781 1109.800781 L 983.375 1111.378906 L 984.136719 1120.132812 L 984.570312 1128.667969 L 984.789062 1148.515625 L 984.679688 1160.097656 L 984.515625 1368.570312 C 984.515625 1370.21875 984.441406 1371.863281 984.292969 1373.503906 C 984.140625 1375.144531 983.917969 1376.777344 983.621094 1378.394531 C 983.320312 1380.015625 982.953125 1381.621094 982.507812 1383.207031 C 982.0625 1384.792969 981.550781 1386.355469 980.964844 1387.894531 C 980.378906 1389.4375 979.722656 1390.945312 979 1392.425781 C 978.277344 1393.90625 977.488281 1395.351562 976.632812 1396.761719 C 975.78125 1398.167969 974.863281 1399.535156 973.886719 1400.863281 C 972.90625 1402.1875 971.871094 1403.464844 970.773438 1404.695312 C 969.679688 1405.929688 968.53125 1407.105469 967.328125 1408.234375 C 966.128906 1409.359375 964.878906 1410.429688 963.578125 1411.445312 C 962.277344 1412.457031 960.9375 1413.410156 959.550781 1414.300781 C 958.164062 1415.191406 956.742188 1416.015625 955.28125 1416.777344 C 953.820312 1417.539062 952.328125 1418.234375 950.804688 1418.859375 C 949.277344 1419.488281 947.730469 1420.042969 946.15625 1420.527344 C 944.582031 1421.011719 942.988281 1421.425781 941.375 1421.765625 C 939.761719 1422.105469 938.140625 1422.375 936.503906 1422.566406 L 930.140625 1422.945312 L 603.890625 1422.945312 C 602.242188 1422.945312 600.597656 1422.871094 598.957031 1422.722656 C 597.316406 1422.570312 595.6875 1422.347656 594.066406 1422.050781 C 592.445312 1421.753906 590.84375 1421.382812 589.257812 1420.9375 C 587.667969 1420.496094 586.105469 1419.980469 584.566406 1419.394531 C 583.027344 1418.808594 581.515625 1418.152344 580.035156 1417.429688 C 578.554688 1416.707031 577.109375 1415.917969 575.703125 1415.066406 C 574.292969 1414.210938 572.925781 1413.292969 571.601562 1412.316406 C 570.273438 1411.335938 568.996094 1410.300781 567.765625 1409.207031 C 566.535156 1408.109375 565.355469 1406.960938 564.230469 1405.761719 C 563.101562 1404.558594 562.03125 1403.308594 561.019531 1402.007812 C 560.003906 1400.707031 559.054688 1399.367188 558.164062 1397.980469 C 557.269531 1396.59375 556.445312 1395.171875 555.683594 1393.710938 C 554.921875 1392.25 554.226562 1390.757812 553.601562 1389.234375 C 552.976562 1387.710938 552.421875 1386.160156 551.933594 1384.585938 C 551.449219 1383.011719 551.035156 1381.417969 550.695312 1379.804688 C 550.355469 1378.195312 550.089844 1376.570312 549.898438 1374.933594 L 549.515625 1368.570312 L 549.515625 1328.660156 C 450.664062 1342.796875 384.761719 1305.605469 326.035156 1226.542969 L 296.945312 1184.894531 C 281.71875 1163.359375 272.203125 1153.410156 264.917969 1149.875 L 262.308594 1148.84375 C 260.644531 1148.300781 259.011719 1147.683594 257.40625 1146.984375 C 255.804688 1146.285156 254.238281 1145.511719 252.707031 1144.664062 C 251.179688 1143.8125 249.695312 1142.894531 248.253906 1141.902344 C 246.816406 1140.910156 245.425781 1139.847656 244.089844 1138.722656 C 242.75 1137.597656 241.472656 1136.410156 240.246094 1135.160156 C 239.023438 1133.910156 237.863281 1132.601562 236.765625 1131.242188 C 235.671875 1129.878906 234.640625 1128.46875 233.679688 1127.007812 C 232.71875 1125.542969 231.832031 1124.039062 231.015625 1122.492188 C 230.199219 1120.945312 229.460938 1119.363281 228.796875 1117.746094 C 228.132812 1116.128906 227.550781 1114.480469 227.046875 1112.808594 C 226.542969 1111.132812 226.121094 1109.4375 225.777344 1107.722656 C 225.4375 1106.007812 225.179688 1104.277344 225.007812 1102.539062 C 224.832031 1100.796875 224.742188 1099.054688 224.738281 1097.304688 C 224.730469 1095.554688 224.808594 1093.8125 224.972656 1092.070312 C 225.136719 1090.328125 225.382812 1088.601562 225.710938 1086.882812 C 226.039062 1085.164062 226.453125 1083.46875 226.945312 1081.789062 C 227.4375 1080.113281 228.011719 1078.460938 228.664062 1076.839844 C 229.316406 1075.214844 230.046875 1073.628906 230.851562 1072.078125 C 231.65625 1070.523438 232.535156 1069.015625 233.488281 1067.546875 C 234.4375 1066.078125 235.457031 1064.660156 236.546875 1063.292969 C 237.636719 1061.925781 238.785156 1060.609375 240 1059.351562 C 241.21875 1058.09375 242.488281 1056.898438 243.820312 1055.761719 C 245.152344 1054.628906 246.53125 1053.558594 247.964844 1052.558594 C 249.398438 1051.554688 250.878906 1050.625 252.402344 1049.765625 C 253.925781 1048.90625 255.484375 1048.125 257.085938 1047.414062 C 258.683594 1046.707031 260.3125 1046.078125 261.972656 1045.527344 C 263.632812 1044.976562 265.3125 1044.503906 267.019531 1044.117188 C 268.722656 1043.726562 270.445312 1043.421875 272.179688 1043.199219 C 273.914062 1042.976562 275.65625 1042.835938 277.402344 1042.78125 C 279.152344 1042.726562 280.898438 1042.753906 282.640625 1042.867188 C 284.386719 1042.980469 286.121094 1043.179688 287.847656 1043.460938 C 289.574219 1043.742188 291.285156 1044.105469 292.976562 1044.550781 C 327.882812 1054.773438 351.375 1075.4375 378.34375 1111.921875 L 407.597656 1153.734375 C 448.921875 1212.40625 481.546875 1233.070312 549.460938 1218.496094 L 549.515625 1181.628906 L 548.539062 1172.496094 C 546.929688 1157.589844 546.546875 1142.65625 547.394531 1127.691406 L 548.320312 1117.632812 L 549.351562 1111.105469 L 543.480469 1109.800781 C 381.660156 1071.195312 287.753906 969.894531 278.402344 775.992188 L 277.859375 759.136719 L 277.640625 743.257812 C 277.648438 735.941406 277.921875 728.636719 278.453125 721.339844 C 278.988281 714.042969 279.785156 706.777344 280.84375 699.535156 C 281.902344 692.296875 283.21875 685.105469 284.796875 677.960938 C 286.371094 670.816406 288.203125 663.738281 290.292969 656.726562 C 292.378906 649.714844 294.714844 642.789062 297.300781 635.945312 C 299.886719 629.101562 302.714844 622.359375 305.789062 615.71875 C 308.859375 609.078125 312.167969 602.558594 315.710938 596.15625 C 319.25 589.757812 323.019531 583.492188 327.011719 577.359375 L 335.277344 565.289062 L 341.914062 556.425781 L 339.464844 545.769531 C 337.023438 533.878906 335.355469 521.878906 334.460938 509.773438 C 333.566406 497.664062 333.453125 485.550781 334.117188 473.429688 C 334.78125 461.308594 336.222656 449.28125 338.4375 437.34375 C 340.652344 425.40625 343.621094 413.664062 347.351562 402.109375 L 352.789062 386.777344 L 358.550781 373.019531 C 359.957031 369.886719 361.644531 366.914062 363.613281 364.101562 C 365.585938 361.292969 367.800781 358.6875 370.261719 356.296875 C 372.722656 353.902344 375.390625 351.765625 378.257812 349.875 C 381.125 347.988281 384.144531 346.386719 387.316406 345.070312 L 395.144531 342.515625 Z M 403.519531 340.882812 " fill-opacity="1" fill-rule="nonzero"/></svg>