<svg xmlns="http://www.w3.org/2000/svg" xmlns:xlink="http://www.w3.org/1999/xlink" width="2048" zoomAndPan="magnify" viewBox="0 0 1536 1535.999932" height="2048" preserveAspectRatio="xMidYMid meet" version="1.0"><path fill="#f44336" d="M 788.738281 838.351562 C 752.03125 779.171875 725.398438 730.105469 688.507812 637.710938 C 626.128906 481.648438 1067.90625 340.628906 888.78125 69.660156 C 966.429688 256.839844 610.089844 372.554688 576.988281 528.433594 C 546.71875 671.804688 788.554688 838.351562 788.738281 838.351562 Z M 788.738281 838.351562 " fill-opacity="1" fill-rule="nonzero"/><path fill="#f44336" d="M 797.125 557.785156 C 790.0625 650.328125 879.109375 699.648438 881.683594 767.253906 C 883.742188 822.277344 828.460938 868.144531 828.460938 868.144531 C 828.460938 868.144531 928.800781 848.429688 960.101562 764.496094 C 994.859375 671.292969 892.644531 607.476562 903.164062 532.847656 C 912.984375 461.566406 1124.992188 328.96875 1124.992188 328.96875 C 1124.992188 328.96875 813.050781 349.640625 797.125 557.785156 Z M 797.125 557.785156 " fill-opacity="1" fill-rule="nonzero"/><path fill="#1565c0" d="M 1098.949219 844.125 C 1163.464844 829.636719 1217.863281 870.71875 1217.863281 918.058594 C 1217.863281 1024.757812 1069.96875 1125.613281 1069.96875 1125.613281 C 1069.96875 1125.613281 1298.929688 1098.320312 1298.929688 923.132812 C 1298.929688 807.273438 1186.488281 778.324219 1098.949219 844.125 Z M 990.261719 930.195312 C 990.261719 930.195312 1061.65625 879.328125 1080.671875 860.238281 C 905.480469 897.421875 505.484375 902.425781 505.484375 870.132812 C 505.484375 840.375 634.476562 809.882812 634.476562 809.882812 C 634.476562 809.882812 348.578125 805.765625 348.578125 890.101562 C 348.578125 978.011719 722.824219 984.300781 990.261719 930.195312 Z M 990.261719 930.195312 " fill-opacity="1" fill-rule="nonzero"/><path fill="#1565c0" d="M 946.34375 1010.230469 C 780.5 1065.367188 475.03125 1047.746094 565.511719 973.707031 C 521.449219 973.707031 456.125 1009.128906 456.125 1043.1875 C 456.125 1111.488281 786.492188 1164.234375 1031.015625 1064.226562 Z M 946.34375 1010.230469 " fill-opacity="1" fill-rule="nonzero"/><path fill="#1565c0" d="M 606.15625 1126.753906 C 545.980469 1126.753906 507.03125 1165.519531 507.03125 1193.769531 C 507.03125 1281.714844 866.015625 1290.578125 1008.25 1201.308594 L 917.839844 1141.28125 C 811.578125 1187.996094 544.65625 1194.429688 606.15625 1126.753906 Z M 606.15625 1126.753906 " fill-opacity="1" fill-rule="nonzero"/><path fill="#1565c0" d="M 1253.320312 1269.941406 C 1253.320312 1235.515625 1214.515625 1219.296875 1200.613281 1211.535156 C 1282.5625 1409.160156 379.765625 1393.824219 379.765625 1277.152344 C 379.765625 1250.632812 446.230469 1224.664062 507.65625 1236.949219 L 455.425781 1206.089844 C 333.019531 1186.890625 249.890625 1240.703125 249.890625 1284.105469 C 249.890625 1486.511719 1253.320312 1476.765625 1253.320312 1269.941406 Z M 1253.320312 1269.941406 " fill-opacity="1" fill-rule="nonzero"/><path fill="#1565c0" d="M 1353.328125 1342.476562 C 1200.835938 1493.09375 814.152344 1547.972656 425.300781 1454.914062 C 814.152344 1620.542969 1351.492188 1527.265625 1353.328125 1342.476562 Z M 1353.328125 1342.476562 " fill-opacity="1" fill-rule="nonzero"/></svg>