<?xml version="1.0" ?><svg xmlns="http://www.w3.org/2000/svg" id="Layer_1" data-name="Layer 1" viewBox="0 0 128 128"><defs><style>
      .cls-1 {
        fill-rule: evenodd;
        stroke-width: 0px;
      }
    </style></defs><path id="Subtract" class="cls-1" d="m78.85,89.99c1.58,14.16,13.59,25.17,28.17,25.17,4.66,0,8.44-3.78,8.44-8.44v-13.05c0-3.08-2.49-5.57-5.57-5.57-3.96,0-7.15-3.25-7.08-7.21l.46-23.73c.43-22.83-17.96-41.58-40.8-41.58h-20.56c-.38,0-.7.32-.7.7v43.57c0,12.82,10.39,23.2,23.2,23.2h19.02c1.91,0,3.46,1.56,3.46,3.47s-1.55,3.47-3.46,3.47h-4.58ZM33.58,15.62h-15.09c-2.21,0-4,1.79-4,4v55.34c0,16.64,13.49,30.13,30.13,30.13h15.36c4.86,0,8.8-3.94,8.8-8.8v-5.6c0-.39-.31-.7-.7-.7h-3.67c-16.64,0-30.13-13.49-30.13-30.14V16.32c0-.39-.31-.7-.7-.7Zm54.62,48.38c0,2.94-2.38,5.33-5.33,5.33s-5.33-2.39-5.33-5.33,2.38-5.34,5.33-5.34,5.33,2.39,5.33,5.34Z"/></svg>