<svg xmlns="http://www.w3.org/2000/svg" xmlns:xlink="http://www.w3.org/1999/xlink" width="2048" zoomAndPan="magnify" viewBox="0 0 1536 1535.999932" height="2048" preserveAspectRatio="xMidYMid meet" version="1.0"><path fill="#b71c1c" d="M 1527.105469 919.378906 C 1527.105469 897.273438 1468.597656 879.367188 1396.308594 879.367188 C 1333.429688 879.367188 1281.09375 892.9375 1268.5 910.980469 C 1144.054688 852.195312 1019.574219 793.40625 895.128906 734.585938 C 851.816406 714.113281 802.367188 714.320312 759.160156 735.070312 C 626.664062 798.820312 494.167969 862.570312 361.671875 926.320312 C 331.6875 921.949219 295.492188 919.347656 256.453125 919.347656 C 153.140625 919.378906 69.574219 937.289062 69.574219 959.394531 L 69.574219 1079.464844 C 69.574219 1080.609375 70.71875 1081.6875 71.136719 1082.796875 C 66.070312 1102.058594 73.566406 1124.613281 93.660156 1134.089844 C 289.417969 1226.574219 485.144531 1319.023438 680.90625 1411.503906 C 730.601562 1435 787.375 1434.792969 836.929688 1410.949219 C 1060.488281 1303.371094 1284.046875 1195.824219 1507.636719 1088.246094 C 1524.433594 1080.160156 1530.230469 1060.96875 1525.300781 1044.972656 C 1526.101562 1043.132812 1527.105469 1041.328125 1527.105469 1039.417969 Z M 1527.105469 919.378906 " fill-opacity="1" fill-rule="nonzero"/><path fill="#e53935" d="M 680.90625 1260.929688 C 485.144531 1173.40625 289.417969 1085.886719 93.660156 998.363281 C 61.664062 984.066406 61.523438 938.433594 93.414062 923.890625 C 315.34375 822.835938 537.234375 721.78125 759.160156 620.726562 C 802.332031 601.046875 851.816406 600.875 895.128906 620.238281 C 1099.214844 711.507812 1303.339844 802.742188 1507.429688 894.011719 C 1533.59375 905.707031 1533.734375 943.082031 1507.636719 954.953125 C 1284.078125 1056.769531 1060.523438 1158.589844 836.929688 1260.375 C 787.375 1282.929688 730.601562 1283.136719 680.90625 1260.929688 Z M 680.90625 1260.929688 " fill-opacity="1" fill-rule="nonzero"/><path fill="#b71c1c" d="M 1527.105469 654.214844 C 1527.105469 632.109375 1468.597656 614.199219 1396.308594 614.199219 C 1333.429688 614.199219 1281.09375 627.769531 1268.5 645.816406 C 1144.054688 587.027344 1019.574219 528.242188 895.128906 469.417969 C 851.816406 448.945312 802.367188 449.152344 759.160156 469.90625 C 626.664062 533.65625 494.167969 597.40625 361.671875 661.15625 C 331.6875 656.78125 295.492188 654.179688 256.453125 654.179688 C 153.140625 654.214844 69.574219 672.15625 69.574219 694.261719 L 69.574219 814.335938 C 69.574219 815.480469 70.71875 816.554688 71.136719 817.664062 C 66.070312 836.925781 73.566406 859.484375 93.660156 868.957031 C 289.417969 961.441406 485.144531 1053.890625 680.90625 1146.375 C 730.601562 1169.867188 787.375 1169.660156 836.929688 1145.820312 C 1060.488281 1038.238281 1284.046875 930.695312 1507.636719 823.113281 C 1524.433594 815.027344 1530.230469 795.835938 1525.300781 779.839844 C 1526.101562 778 1527.105469 776.195312 1527.105469 774.285156 Z M 1527.105469 654.214844 " fill-opacity="1" fill-rule="nonzero"/><path fill="#e53935" d="M 680.90625 995.761719 C 485.144531 908.242188 289.417969 820.71875 93.660156 733.199219 C 61.664062 718.902344 61.523438 673.265625 93.414062 658.726562 C 315.34375 557.667969 537.234375 456.613281 759.160156 355.558594 C 802.332031 335.882812 851.816406 335.707031 895.128906 355.074219 C 1099.214844 446.34375 1303.339844 537.578125 1507.429688 628.847656 C 1533.59375 640.539062 1533.734375 677.917969 1507.636719 689.785156 C 1284.078125 791.605469 1060.523438 893.421875 836.929688 995.207031 C 787.375 1017.796875 730.601562 1018.007812 680.90625 995.761719 Z M 680.90625 995.761719 " fill-opacity="1" fill-rule="nonzero"/><path fill="#b71c1c" d="M 1527.105469 389.082031 C 1527.105469 366.976562 1468.597656 349.070312 1396.308594 349.070312 C 1333.429688 349.070312 1281.09375 362.636719 1268.5 380.683594 C 1144.054688 321.898438 1019.574219 263.109375 895.128906 204.289062 C 851.816406 183.8125 802.367188 184.019531 759.160156 204.773438 C 626.664062 268.523438 494.167969 332.273438 361.671875 396.023438 C 331.6875 391.648438 295.492188 389.046875 256.453125 389.046875 C 153.140625 389.082031 69.574219 406.988281 69.574219 429.09375 L 69.574219 549.167969 C 69.574219 550.3125 70.71875 551.386719 71.136719 552.5 C 66.070312 571.757812 73.566406 594.316406 93.660156 603.789062 C 289.417969 696.273438 485.144531 788.722656 680.90625 881.207031 C 730.601562 904.699219 787.375 904.492188 836.929688 880.652344 C 1060.488281 773.070312 1284.046875 665.527344 1507.636719 557.949219 C 1524.433594 549.863281 1530.230469 530.671875 1525.300781 514.671875 C 1526.101562 512.832031 1527.105469 511.027344 1527.105469 509.121094 Z M 1527.105469 389.082031 " fill-opacity="1" fill-rule="nonzero"/><path fill="#e53935" d="M 680.90625 730.628906 C 485.144531 643.109375 289.417969 555.585938 93.660156 468.066406 C 61.664062 453.769531 61.523438 408.132812 93.414062 393.59375 C 315.34375 292.539062 537.234375 191.484375 759.160156 90.425781 C 802.332031 70.75 851.816406 70.578125 895.128906 89.941406 C 1099.214844 181.210938 1303.339844 272.445312 1507.429688 363.714844 C 1533.59375 375.410156 1533.734375 412.785156 1507.636719 424.652344 C 1284.078125 526.472656 1060.523438 628.289062 836.929688 730.074219 C 787.375 752.667969 730.601562 752.839844 680.90625 730.628906 Z M 680.90625 730.628906 " fill-opacity="1" fill-rule="nonzero"/><path fill="#ffffff" d="M 616.078125 413.582031 C 616.011719 449.742188 520.230469 484.964844 439.335938 485.972656 C 355.390625 487.015625 256.347656 451.511719 256.035156 414.796875 C 255.722656 377.976562 354.660156 339.804688 440.34375 340.707031 C 521.304688 341.539062 616.183594 377.5625 616.078125 413.582031 Z M 616.078125 413.582031 " fill-opacity="1" fill-rule="nonzero"/><path fill="#ffffff" d="M 556.738281 543.023438 C 639.78125 578.492188 722.792969 613.992188 805.835938 649.460938 C 842.414062 595.324219 878.992188 541.1875 915.566406 487.050781 C 795.945312 505.71875 676.359375 524.390625 556.738281 543.023438 Z M 556.738281 543.023438 " fill-opacity="1" fill-rule="nonzero"/><path fill="#ffffff" d="M 724.074219 241.246094 C 685.867188 255.164062 647.625 269.042969 609.417969 282.960938 C 661.714844 287.539062 714.046875 292.121094 766.34375 296.667969 C 783 324.292969 799.625 351.914062 816.28125 379.503906 C 826.519531 354.449219 836.757812 329.394531 846.996094 304.335938 C 891.621094 300.867188 936.25 297.394531 980.878906 293.925781 C 946.28125 279.386719 911.679688 264.808594 877.082031 250.234375 C 885.894531 229.136719 894.710938 208.035156 903.527344 186.902344 C 869.863281 196.964844 836.234375 207.03125 802.574219 217.09375 C 765.441406 202.449219 728.308594 187.839844 691.175781 173.195312 C 702.144531 195.890625 713.109375 218.585938 724.074219 241.246094 Z M 724.074219 241.246094 " fill-opacity="1" fill-rule="nonzero"/><path fill="#b71c1c" d="M 911.714844 409.347656 C 990.527344 377.90625 1069.371094 346.433594 1148.183594 314.992188 C 1216.269531 343.933594 1284.359375 372.875 1352.445312 401.816406 C 1276.027344 432.21875 1199.648438 462.617188 1123.230469 493.050781 C 1052.75 465.117188 982.230469 437.25 911.714844 409.347656 Z M 911.714844 409.347656 " fill-opacity="1" fill-rule="nonzero"/><path fill="#a01c1c" d="M 1148.21875 317.175781 C 1148.042969 372.5625 1147.871094 427.914062 1147.695312 483.300781 C 1215.957031 456.128906 1284.21875 428.992188 1352.480469 401.816406 C 1284.390625 373.605469 1216.304688 345.390625 1148.21875 317.175781 Z M 1148.21875 317.175781 " fill-opacity="1" fill-rule="nonzero"/></svg>