<svg xmlns="http://www.w3.org/2000/svg" xmlns:xlink="http://www.w3.org/1999/xlink" width="2048" zoomAndPan="magnify" viewBox="0 0 1536 1535.999932" height="2048" preserveAspectRatio="xMidYMid meet" version="1.0"><path fill="#7de19a" d="M 1367.167969 598.65625 L 768 598.65625 L 768 25.34375 C 768 24.015625 767.894531 22.695312 767.6875 21.382812 C 767.476562 20.070312 767.167969 18.785156 766.757812 17.519531 C 766.34375 16.257812 765.839844 15.03125 765.234375 13.851562 C 764.632812 12.667969 763.9375 11.535156 763.15625 10.460938 C 762.378906 9.386719 761.515625 8.378906 760.578125 7.441406 C 759.636719 6.5 758.632812 5.640625 757.554688 4.859375 C 756.480469 4.078125 755.351562 3.386719 754.167969 2.785156 C 752.984375 2.179688 751.761719 1.671875 750.5 1.261719 C 749.234375 0.851562 747.949219 0.539062 746.636719 0.332031 C 745.324219 0.125 744.003906 0.0195312 742.675781 0.015625 C 741.347656 0.015625 740.027344 0.121094 738.714844 0.324219 C 737.402344 0.53125 736.113281 0.839844 734.847656 1.25 C 733.585938 1.660156 732.359375 2.164062 731.175781 2.765625 C 729.992188 3.367188 728.863281 4.058594 727.785156 4.839844 C 726.710938 5.617188 725.703125 6.476562 724.761719 7.414062 C 723.820312 8.351562 722.957031 9.359375 722.175781 10.433594 L 140.992188 795.136719 L 115.328125 831.105469 C 113.503906 833.570312 111.855469 836.148438 110.386719 838.839844 C 108.917969 841.53125 107.640625 844.3125 106.554688 847.183594 C 105.46875 850.050781 104.589844 852.984375 103.910156 855.972656 C 103.230469 858.964844 102.757812 861.988281 102.496094 865.046875 C 102.234375 868.101562 102.183594 871.160156 102.347656 874.222656 C 102.507812 877.289062 102.878906 880.324219 103.460938 883.335938 C 104.042969 886.347656 104.828125 889.304688 105.820312 892.210938 C 106.808594 895.113281 107.996094 897.933594 109.375 900.671875 C 110.753906 903.410156 112.316406 906.042969 114.0625 908.566406 C 115.804688 911.089844 117.714844 913.480469 119.789062 915.742188 C 121.863281 918 124.085938 920.105469 126.449219 922.058594 C 128.816406 924.011719 131.304688 925.789062 133.917969 927.398438 C 136.53125 929.007812 139.242188 930.425781 142.046875 931.660156 C 144.855469 932.894531 147.738281 933.929688 150.6875 934.765625 C 153.640625 935.601562 156.636719 936.226562 159.671875 936.648438 C 162.710938 937.070312 165.765625 937.28125 168.832031 937.28125 L 768 937.28125 L 768 1510.65625 C 768 1511.984375 768.105469 1513.304688 768.3125 1514.617188 C 768.523438 1515.929688 768.832031 1517.214844 769.242188 1518.480469 C 769.65625 1519.742188 770.160156 1520.964844 770.765625 1522.148438 C 771.367188 1523.332031 772.0625 1524.464844 772.84375 1525.539062 C 773.625 1526.613281 774.484375 1527.621094 775.421875 1528.558594 C 776.363281 1529.5 777.371094 1530.359375 778.445312 1531.140625 C 779.519531 1531.921875 780.648438 1532.613281 781.832031 1533.214844 C 783.015625 1533.820312 784.238281 1534.328125 785.5 1534.738281 C 786.765625 1535.148438 788.050781 1535.460938 789.363281 1535.667969 C 790.675781 1535.875 791.996094 1535.980469 793.324219 1535.980469 C 794.652344 1535.984375 795.972656 1535.878906 797.285156 1535.675781 C 798.597656 1535.46875 799.886719 1535.160156 801.152344 1534.75 C 802.414062 1534.339844 803.640625 1533.835938 804.824219 1533.234375 C 806.007812 1532.632812 807.136719 1531.941406 808.214844 1531.160156 C 809.289062 1530.382812 810.296875 1529.523438 811.238281 1528.585938 C 812.179688 1527.648438 813.042969 1526.640625 813.824219 1525.566406 L 1395.007812 740.863281 L 1420.671875 704.894531 C 1422.503906 702.429688 1424.152344 699.851562 1425.628906 697.160156 C 1427.101562 694.464844 1428.382812 691.683594 1429.46875 688.8125 C 1430.558594 685.941406 1431.445312 683.007812 1432.125 680.015625 C 1432.808594 677.023438 1433.28125 673.996094 1433.546875 670.9375 C 1433.808594 667.878906 1433.863281 664.816406 1433.703125 661.75 C 1433.542969 658.6875 1433.171875 655.644531 1432.59375 652.628906 C 1432.011719 649.617188 1431.226562 646.65625 1430.234375 643.75 C 1429.246094 640.84375 1428.0625 638.019531 1426.679688 635.277344 C 1425.296875 632.535156 1423.734375 629.902344 1421.988281 627.375 C 1420.246094 624.851562 1418.335938 622.457031 1416.257812 620.195312 C 1414.179688 617.933594 1411.957031 615.828125 1409.589844 613.875 C 1407.222656 611.917969 1404.730469 610.136719 1402.117188 608.527344 C 1399.5 606.921875 1396.789062 605.5 1393.976562 604.265625 C 1391.164062 603.03125 1388.28125 601.996094 1385.328125 601.164062 C 1382.375 600.328125 1379.375 599.699219 1376.335938 599.28125 C 1373.292969 598.863281 1370.238281 598.652344 1367.167969 598.65625 Z M 1367.167969 598.65625 " fill-opacity="1" fill-rule="nonzero"/></svg>