<svg xmlns="http://www.w3.org/2000/svg" xmlns:xlink="http://www.w3.org/1999/xlink" width="2048" zoomAndPan="magnify" viewBox="0 0 1536 1535.999932" height="2048" preserveAspectRatio="xMidYMid meet" version="1.0"><path fill="#01579b" d="M 768 192 C 450.335938 192 192 450.335938 192 768 C 192 1085.566406 450.382812 1344 768 1344 C 1085.664062 1344 1344 1085.566406 1344 768 C 1344 450.433594 1085.664062 192 768 192 Z M 768 219 C 1071.070312 219 1317 464.976562 1317 768 C 1317 1071.023438 1071.023438 1317 768 1317 C 464.976562 1317 219 1070.976562 219 768 C 219 464.976562 464.929688 219 768 219 Z M 768 274.5 C 595.34375 274.5 443.820312 362.292969 355.5 496.5 C 367.117188 496.835938 377.6875 496.5 387 496.5 C 438.695312 496.5 519 490.5 519 490.5 C 545.640625 488.964844 548.59375 527.832031 522 531 C 522 531 494.761719 535.464844 465 537 L 645 1071 L 753 747 L 676.5 537 C 649.859375 535.464844 624 531 624 531 C 597.359375 529.414062 600.359375 488.914062 627 490.5 C 627 490.5 708.972656 496.5 757.5 496.5 C 809.195312 496.5 889.5 490.5 889.5 490.5 C 916.140625 488.964844 919.09375 527.832031 892.5 531 C 892.5 531 865.210938 535.464844 835.5 537 L 1014 1068 L 1063.5 903 C 1088.507812 838.824219 1101 784.882812 1101 742.5 C 1101 681.445312 1079.363281 640.378906 1060.5 607.5 C 1035.492188 566.746094 1012.5 531.25 1012.5 490.5 C 1012.5 445.140625 1046.472656 403.5 1095 403.5 C 1097.160156 403.5 1098.839844 403.453125 1101 403.5 C 1013.113281 322.90625 896.640625 274.5 768 274.5 Z M 1201.5 531 C 1203.660156 546.742188 1204.5 563.761719 1204.5 582 C 1204.5 632.113281 1195.175781 688.535156 1167 759 L 1017 1195.5 C 1163.929688 1109.820312 1261.5 950.257812 1261.5 768 C 1261.546875 682.03125 1240.09375 601.320312 1201.5 531 Z M 316.5 567 C 289.09375 628.390625 274.5 696.335938 274.5 768 C 274.5 963.550781 387.121094 1131.886719 552 1212 Z M 777 811.5 L 628.5 1242 C 672.804688 1255.007812 719.472656 1261.5 768 1261.5 C 825.503906 1261.5 880.140625 1252.546875 931.5 1234.5 C 930.203125 1232.386719 929.507812 1229.398438 928.5 1227 Z M 777 811.5 " fill-opacity="1" fill-rule="nonzero"/></svg>